<svg fill-rule="evenodd" height="192pt" stroke-linejoin="bevel" stroke-width=".501" viewBox="0 0 192 192" width="192pt" xmlns="http://www.w3.org/2000/svg"><path d="m126.607 23.53c1.728 3.012 2.329 6.662 1.405 10.283l-16.247 63.617-32.393-66.326c-3.915-8.019-12.654-12.105-21.013-10.491-.882.171-1.626.762-1.992 1.582l-.031.07-2.573 5.687c-.894 1.977.753 4.169 2.901 3.863 5.772-.824 11.662 2.099 14.354 7.607l36.471 74.675-10.361 37.501c-1.14 4.461-4.321 7.855-8.286 9.435l-3.914.887-.159-.058c-.687.019-1.388.321-1.97 1.018l-3.36 4.016c-1.3 1.553-.532 3.936 1.429 4.438l2.633.673c10.33 2.638 20.853-3.604 23.487-13.924l30.891-117.811c2.005-7.855-1.116-15.804-7.244-20.33-2.386-1.762-5.504 1.016-4.028 3.588z" transform="matrix(1 0 0 -1 0 192)"/></svg>
